<mxfile host="app.diagrams.net" agent="Mozilla/5.0 (Windows NT 10.0; Win64; x64) AppleWebKit/537.36 (KHTML, like Gecko) Chrome/133.0.0.0 Safari/537.36 Edg/133.0.0.0" version="25.0.3">
  <diagram name="Page-1" id="lBoi2pPofl5Tr8WHW0-m">
    <mxGraphModel dx="1615" dy="923" grid="1" gridSize="10" guides="1" tooltips="1" connect="1" arrows="1" fold="1" page="1" pageScale="1" pageWidth="850" pageHeight="1100" math="0" shadow="0">
      <root>
        <mxCell id="0" />
        <mxCell id="1" parent="0" />
        <mxCell id="fqoP-xQqPO7f5L640V4m-5" style="edgeStyle=orthogonalEdgeStyle;rounded=0;orthogonalLoop=1;jettySize=auto;html=1;" edge="1" parent="1" source="fqoP-xQqPO7f5L640V4m-1" target="fqoP-xQqPO7f5L640V4m-2">
          <mxGeometry relative="1" as="geometry" />
        </mxCell>
        <mxCell id="fqoP-xQqPO7f5L640V4m-1" value="Requrement Gathering and Research" style="rounded=0;whiteSpace=wrap;html=1;" vertex="1" parent="1">
          <mxGeometry x="310" y="90" width="250" height="80" as="geometry" />
        </mxCell>
        <mxCell id="fqoP-xQqPO7f5L640V4m-6" style="edgeStyle=orthogonalEdgeStyle;rounded=0;orthogonalLoop=1;jettySize=auto;html=1;entryX=0.5;entryY=0;entryDx=0;entryDy=0;" edge="1" parent="1" source="fqoP-xQqPO7f5L640V4m-2" target="fqoP-xQqPO7f5L640V4m-3">
          <mxGeometry relative="1" as="geometry" />
        </mxCell>
        <mxCell id="fqoP-xQqPO7f5L640V4m-2" value="Design Phase" style="rounded=0;whiteSpace=wrap;html=1;" vertex="1" parent="1">
          <mxGeometry x="310" y="230" width="250" height="80" as="geometry" />
        </mxCell>
        <mxCell id="fqoP-xQqPO7f5L640V4m-7" style="edgeStyle=orthogonalEdgeStyle;rounded=0;orthogonalLoop=1;jettySize=auto;html=1;" edge="1" parent="1" source="fqoP-xQqPO7f5L640V4m-3" target="fqoP-xQqPO7f5L640V4m-4">
          <mxGeometry relative="1" as="geometry" />
        </mxCell>
        <mxCell id="fqoP-xQqPO7f5L640V4m-3" value="Development Phase MVP" style="rounded=0;whiteSpace=wrap;html=1;" vertex="1" parent="1">
          <mxGeometry x="310" y="360" width="250" height="80" as="geometry" />
        </mxCell>
        <mxCell id="fqoP-xQqPO7f5L640V4m-10" style="edgeStyle=orthogonalEdgeStyle;rounded=0;orthogonalLoop=1;jettySize=auto;html=1;entryX=0.5;entryY=0;entryDx=0;entryDy=0;" edge="1" parent="1" source="fqoP-xQqPO7f5L640V4m-4" target="fqoP-xQqPO7f5L640V4m-8">
          <mxGeometry relative="1" as="geometry" />
        </mxCell>
        <mxCell id="fqoP-xQqPO7f5L640V4m-4" value="Testing Phase" style="rounded=0;whiteSpace=wrap;html=1;" vertex="1" parent="1">
          <mxGeometry x="310" y="510" width="250" height="80" as="geometry" />
        </mxCell>
        <mxCell id="fqoP-xQqPO7f5L640V4m-11" style="edgeStyle=orthogonalEdgeStyle;rounded=0;orthogonalLoop=1;jettySize=auto;html=1;entryX=0.5;entryY=0;entryDx=0;entryDy=0;" edge="1" parent="1" source="fqoP-xQqPO7f5L640V4m-8" target="fqoP-xQqPO7f5L640V4m-9">
          <mxGeometry relative="1" as="geometry" />
        </mxCell>
        <mxCell id="fqoP-xQqPO7f5L640V4m-8" value="Wide Launch" style="rounded=0;whiteSpace=wrap;html=1;" vertex="1" parent="1">
          <mxGeometry x="310" y="640" width="250" height="80" as="geometry" />
        </mxCell>
        <mxCell id="fqoP-xQqPO7f5L640V4m-9" value="Post launch support and upgrade" style="rounded=0;whiteSpace=wrap;html=1;" vertex="1" parent="1">
          <mxGeometry x="310" y="780" width="250" height="80" as="geometry" />
        </mxCell>
      </root>
    </mxGraphModel>
  </diagram>
</mxfile>
